<?xml version="1.0" encoding="utf-8" standalone="no"?>
<!DOCTYPE svg PUBLIC "-//W3C//DTD SVG 1.1//EN"
  "http://www.w3.org/Graphics/SVG/1.1/DTD/svg11.dtd">
<svg xmlns:xlink="http://www.w3.org/1999/xlink" width="562.5pt" height="262.5pt" viewBox="0 0 562.5 262.5" xmlns="http://www.w3.org/2000/svg" version="1.1">
 <metadata>
  <rdf:RDF xmlns:dc="http://purl.org/dc/elements/1.1/" xmlns:cc="http://creativecommons.org/ns#" xmlns:rdf="http://www.w3.org/1999/02/22-rdf-syntax-ns#">
   <cc:Work>
    <dc:type rdf:resource="http://purl.org/dc/dcmitype/StillImage"/>
    <dc:date>2023-04-19T00:55:41.027532</dc:date>
    <dc:format>image/svg+xml</dc:format>
    <dc:creator>
     <cc:Agent>
      <dc:title>Matplotlib v3.6.2, https://matplotlib.org/</dc:title>
     </cc:Agent>
    </dc:creator>
   </cc:Work>
  </rdf:RDF>
 </metadata>
 <defs>
  <style type="text/css">*{stroke-linejoin: round; stroke-linecap: butt}</style>
 </defs>
 <g id="figure_1">
  <g id="patch_1">
   <path d="M 0 262.5 
L 562.5 262.5 
L 562.5 0 
L 0 0 
z
"/>
  </g>
  <g id="axes_1">
   <g id="patch_2">
    <path d="M 36.528703 228.763148 
L 472.905033 228.763148 
L 472.905033 23.127882 
L 36.528703 23.127882 
z
" style="fill: #333333"/>
   </g>
   <g id="matplotlib.axis_1">
    <g id="xtick_1">
     <g id="line2d_1">
      <path d="M 36.528703 228.763148 
L 36.528703 23.127882 
" clip-path="url(#pd01cd8b93a)" style="fill: none; stroke: #000000; stroke-width: 0.8; stroke-linecap: square"/>
     </g>
     <g id="line2d_2">
      <defs>
       <path id="ma335a64f87" d="M 0 0 
L 0 3.5 
" style="stroke: #ffffff; stroke-width: 0.8"/>
      </defs>
      <g>
       <use xlink:href="#ma335a64f87" x="36.528703" y="228.763148" style="fill: #ffffff; stroke: #ffffff; stroke-width: 0.8"/>
      </g>
     </g>
     <g id="text_1">
      <!-- 0 -->
      <g style="fill: #ffffff" transform="translate(33.613724 242.725596) scale(0.09163 -0.09163)">
       <defs>
        <path id="DejaVuSans-30" d="M 2034 4250 
Q 1547 4250 1301 3770 
Q 1056 3291 1056 2328 
Q 1056 1369 1301 889 
Q 1547 409 2034 409 
Q 2525 409 2770 889 
Q 3016 1369 3016 2328 
Q 3016 3291 2770 3770 
Q 2525 4250 2034 4250 
z
M 2034 4750 
Q 2819 4750 3233 4129 
Q 3647 3509 3647 2328 
Q 3647 1150 3233 529 
Q 2819 -91 2034 -91 
Q 1250 -91 836 529 
Q 422 1150 422 2328 
Q 422 3509 836 4129 
Q 1250 4750 2034 4750 
z
" transform="scale(0.015625)"/>
       </defs>
       <use xlink:href="#DejaVuSans-30"/>
      </g>
     </g>
    </g>
    <g id="xtick_2">
     <g id="line2d_3">
      <path d="M 122.09269 228.763148 
L 122.09269 23.127882 
" clip-path="url(#pd01cd8b93a)" style="fill: none; stroke: #000000; stroke-width: 0.8; stroke-linecap: square"/>
     </g>
     <g id="line2d_4">
      <g>
       <use xlink:href="#ma335a64f87" x="122.09269" y="228.763148" style="fill: #ffffff; stroke: #ffffff; stroke-width: 0.8"/>
      </g>
     </g>
     <g id="text_2">
      <!-- 50 -->
      <g style="fill: #ffffff" transform="translate(116.262731 242.725596) scale(0.09163 -0.09163)">
       <defs>
        <path id="DejaVuSans-35" d="M 691 4666 
L 3169 4666 
L 3169 4134 
L 1269 4134 
L 1269 2991 
Q 1406 3038 1543 3061 
Q 1681 3084 1819 3084 
Q 2600 3084 3056 2656 
Q 3513 2228 3513 1497 
Q 3513 744 3044 326 
Q 2575 -91 1722 -91 
Q 1428 -91 1123 -41 
Q 819 9 494 109 
L 494 744 
Q 775 591 1075 516 
Q 1375 441 1709 441 
Q 2250 441 2565 725 
Q 2881 1009 2881 1497 
Q 2881 1984 2565 2268 
Q 2250 2553 1709 2553 
Q 1456 2553 1204 2497 
Q 953 2441 691 2322 
L 691 4666 
z
" transform="scale(0.015625)"/>
       </defs>
       <use xlink:href="#DejaVuSans-35"/>
       <use xlink:href="#DejaVuSans-30" x="63.623047"/>
      </g>
     </g>
    </g>
    <g id="xtick_3">
     <g id="line2d_5">
      <path d="M 207.656676 228.763148 
L 207.656676 23.127882 
" clip-path="url(#pd01cd8b93a)" style="fill: none; stroke: #000000; stroke-width: 0.8; stroke-linecap: square"/>
     </g>
     <g id="line2d_6">
      <g>
       <use xlink:href="#ma335a64f87" x="207.656676" y="228.763148" style="fill: #ffffff; stroke: #ffffff; stroke-width: 0.8"/>
      </g>
     </g>
     <g id="text_3">
      <!-- 100 -->
      <g style="fill: #ffffff" transform="translate(198.911738 242.725596) scale(0.09163 -0.09163)">
       <defs>
        <path id="DejaVuSans-31" d="M 794 531 
L 1825 531 
L 1825 4091 
L 703 3866 
L 703 4441 
L 1819 4666 
L 2450 4666 
L 2450 531 
L 3481 531 
L 3481 0 
L 794 0 
L 794 531 
z
" transform="scale(0.015625)"/>
       </defs>
       <use xlink:href="#DejaVuSans-31"/>
       <use xlink:href="#DejaVuSans-30" x="63.623047"/>
       <use xlink:href="#DejaVuSans-30" x="127.246094"/>
      </g>
     </g>
    </g>
    <g id="xtick_4">
     <g id="line2d_7">
      <path d="M 293.220662 228.763148 
L 293.220662 23.127882 
" clip-path="url(#pd01cd8b93a)" style="fill: none; stroke: #000000; stroke-width: 0.8; stroke-linecap: square"/>
     </g>
     <g id="line2d_8">
      <g>
       <use xlink:href="#ma335a64f87" x="293.220662" y="228.763148" style="fill: #ffffff; stroke: #ffffff; stroke-width: 0.8"/>
      </g>
     </g>
     <g id="text_4">
      <!-- 150 -->
      <g style="fill: #ffffff" transform="translate(284.475724 242.725596) scale(0.09163 -0.09163)">
       <use xlink:href="#DejaVuSans-31"/>
       <use xlink:href="#DejaVuSans-35" x="63.623047"/>
       <use xlink:href="#DejaVuSans-30" x="127.246094"/>
      </g>
     </g>
    </g>
    <g id="xtick_5">
     <g id="line2d_9">
      <path d="M 378.784648 228.763148 
L 378.784648 23.127882 
" clip-path="url(#pd01cd8b93a)" style="fill: none; stroke: #000000; stroke-width: 0.8; stroke-linecap: square"/>
     </g>
     <g id="line2d_10">
      <g>
       <use xlink:href="#ma335a64f87" x="378.784648" y="228.763148" style="fill: #ffffff; stroke: #ffffff; stroke-width: 0.8"/>
      </g>
     </g>
     <g id="text_5">
      <!-- 200 -->
      <g style="fill: #ffffff" transform="translate(370.03971 242.725596) scale(0.09163 -0.09163)">
       <defs>
        <path id="DejaVuSans-32" d="M 1228 531 
L 3431 531 
L 3431 0 
L 469 0 
L 469 531 
Q 828 903 1448 1529 
Q 2069 2156 2228 2338 
Q 2531 2678 2651 2914 
Q 2772 3150 2772 3378 
Q 2772 3750 2511 3984 
Q 2250 4219 1831 4219 
Q 1534 4219 1204 4116 
Q 875 4013 500 3803 
L 500 4441 
Q 881 4594 1212 4672 
Q 1544 4750 1819 4750 
Q 2544 4750 2975 4387 
Q 3406 4025 3406 3419 
Q 3406 3131 3298 2873 
Q 3191 2616 2906 2266 
Q 2828 2175 2409 1742 
Q 1991 1309 1228 531 
z
" transform="scale(0.015625)"/>
       </defs>
       <use xlink:href="#DejaVuSans-32"/>
       <use xlink:href="#DejaVuSans-30" x="63.623047"/>
       <use xlink:href="#DejaVuSans-30" x="127.246094"/>
      </g>
     </g>
    </g>
    <g id="xtick_6">
     <g id="line2d_11">
      <path d="M 464.348634 228.763148 
L 464.348634 23.127882 
" clip-path="url(#pd01cd8b93a)" style="fill: none; stroke: #000000; stroke-width: 0.8; stroke-linecap: square"/>
     </g>
     <g id="line2d_12">
      <g>
       <use xlink:href="#ma335a64f87" x="464.348634" y="228.763148" style="fill: #ffffff; stroke: #ffffff; stroke-width: 0.8"/>
      </g>
     </g>
     <g id="text_6">
      <!-- 250 -->
      <g style="fill: #ffffff" transform="translate(455.603696 242.725596) scale(0.09163 -0.09163)">
       <use xlink:href="#DejaVuSans-32"/>
       <use xlink:href="#DejaVuSans-35" x="63.623047"/>
       <use xlink:href="#DejaVuSans-30" x="127.246094"/>
      </g>
     </g>
    </g>
   </g>
   <g id="matplotlib.axis_2">
    <g id="ytick_1">
     <g id="line2d_13">
      <path d="M 36.528703 228.763148 
L 472.905033 228.763148 
" clip-path="url(#pd01cd8b93a)" style="fill: none; stroke: #000000; stroke-width: 0.8; stroke-linecap: square"/>
     </g>
     <g id="line2d_14">
      <defs>
       <path id="m87d8d52b3f" d="M 0 0 
L -3.5 0 
" style="stroke: #ffffff; stroke-width: 0.8"/>
      </defs>
      <g>
       <use xlink:href="#m87d8d52b3f" x="36.528703" y="228.763148" style="fill: #ffffff; stroke: #ffffff; stroke-width: 0.8"/>
      </g>
     </g>
     <g id="text_7">
      <!-- 0 -->
      <g style="fill: #ffffff" transform="translate(23.698745 232.244372) scale(0.09163 -0.09163)">
       <use xlink:href="#DejaVuSans-30"/>
      </g>
     </g>
    </g>
    <g id="ytick_2">
     <g id="line2d_15">
      <path d="M 36.528703 203.05874 
L 472.905033 203.05874 
" clip-path="url(#pd01cd8b93a)" style="fill: none; stroke: #000000; stroke-width: 0.8; stroke-linecap: square"/>
     </g>
     <g id="line2d_16">
      <g>
       <use xlink:href="#m87d8d52b3f" x="36.528703" y="203.05874" style="fill: #ffffff; stroke: #ffffff; stroke-width: 0.8"/>
      </g>
     </g>
     <g id="text_8">
      <!-- 2 -->
      <g style="fill: #ffffff" transform="translate(23.698745 206.539964) scale(0.09163 -0.09163)">
       <use xlink:href="#DejaVuSans-32"/>
      </g>
     </g>
    </g>
    <g id="ytick_3">
     <g id="line2d_17">
      <path d="M 36.528703 177.354332 
L 472.905033 177.354332 
" clip-path="url(#pd01cd8b93a)" style="fill: none; stroke: #000000; stroke-width: 0.8; stroke-linecap: square"/>
     </g>
     <g id="line2d_18">
      <g>
       <use xlink:href="#m87d8d52b3f" x="36.528703" y="177.354332" style="fill: #ffffff; stroke: #ffffff; stroke-width: 0.8"/>
      </g>
     </g>
     <g id="text_9">
      <!-- 4 -->
      <g style="fill: #ffffff" transform="translate(23.698745 180.835556) scale(0.09163 -0.09163)">
       <defs>
        <path id="DejaVuSans-34" d="M 2419 4116 
L 825 1625 
L 2419 1625 
L 2419 4116 
z
M 2253 4666 
L 3047 4666 
L 3047 1625 
L 3713 1625 
L 3713 1100 
L 3047 1100 
L 3047 0 
L 2419 0 
L 2419 1100 
L 313 1100 
L 313 1709 
L 2253 4666 
z
" transform="scale(0.015625)"/>
       </defs>
       <use xlink:href="#DejaVuSans-34"/>
      </g>
     </g>
    </g>
    <g id="ytick_4">
     <g id="line2d_19">
      <path d="M 36.528703 151.649923 
L 472.905033 151.649923 
" clip-path="url(#pd01cd8b93a)" style="fill: none; stroke: #000000; stroke-width: 0.8; stroke-linecap: square"/>
     </g>
     <g id="line2d_20">
      <g>
       <use xlink:href="#m87d8d52b3f" x="36.528703" y="151.649923" style="fill: #ffffff; stroke: #ffffff; stroke-width: 0.8"/>
      </g>
     </g>
     <g id="text_10">
      <!-- 6 -->
      <g style="fill: #ffffff" transform="translate(23.698745 155.131147) scale(0.09163 -0.09163)">
       <defs>
        <path id="DejaVuSans-36" d="M 2113 2584 
Q 1688 2584 1439 2293 
Q 1191 2003 1191 1497 
Q 1191 994 1439 701 
Q 1688 409 2113 409 
Q 2538 409 2786 701 
Q 3034 994 3034 1497 
Q 3034 2003 2786 2293 
Q 2538 2584 2113 2584 
z
M 3366 4563 
L 3366 3988 
Q 3128 4100 2886 4159 
Q 2644 4219 2406 4219 
Q 1781 4219 1451 3797 
Q 1122 3375 1075 2522 
Q 1259 2794 1537 2939 
Q 1816 3084 2150 3084 
Q 2853 3084 3261 2657 
Q 3669 2231 3669 1497 
Q 3669 778 3244 343 
Q 2819 -91 2113 -91 
Q 1303 -91 875 529 
Q 447 1150 447 2328 
Q 447 3434 972 4092 
Q 1497 4750 2381 4750 
Q 2619 4750 2861 4703 
Q 3103 4656 3366 4563 
z
" transform="scale(0.015625)"/>
       </defs>
       <use xlink:href="#DejaVuSans-36"/>
      </g>
     </g>
    </g>
    <g id="ytick_5">
     <g id="line2d_21">
      <path d="M 36.528703 125.945515 
L 472.905033 125.945515 
" clip-path="url(#pd01cd8b93a)" style="fill: none; stroke: #000000; stroke-width: 0.8; stroke-linecap: square"/>
     </g>
     <g id="line2d_22">
      <g>
       <use xlink:href="#m87d8d52b3f" x="36.528703" y="125.945515" style="fill: #ffffff; stroke: #ffffff; stroke-width: 0.8"/>
      </g>
     </g>
     <g id="text_11">
      <!-- 8 -->
      <g style="fill: #ffffff" transform="translate(23.698745 129.426739) scale(0.09163 -0.09163)">
       <defs>
        <path id="DejaVuSans-38" d="M 2034 2216 
Q 1584 2216 1326 1975 
Q 1069 1734 1069 1313 
Q 1069 891 1326 650 
Q 1584 409 2034 409 
Q 2484 409 2743 651 
Q 3003 894 3003 1313 
Q 3003 1734 2745 1975 
Q 2488 2216 2034 2216 
z
M 1403 2484 
Q 997 2584 770 2862 
Q 544 3141 544 3541 
Q 544 4100 942 4425 
Q 1341 4750 2034 4750 
Q 2731 4750 3128 4425 
Q 3525 4100 3525 3541 
Q 3525 3141 3298 2862 
Q 3072 2584 2669 2484 
Q 3125 2378 3379 2068 
Q 3634 1759 3634 1313 
Q 3634 634 3220 271 
Q 2806 -91 2034 -91 
Q 1263 -91 848 271 
Q 434 634 434 1313 
Q 434 1759 690 2068 
Q 947 2378 1403 2484 
z
M 1172 3481 
Q 1172 3119 1398 2916 
Q 1625 2713 2034 2713 
Q 2441 2713 2670 2916 
Q 2900 3119 2900 3481 
Q 2900 3844 2670 4047 
Q 2441 4250 2034 4250 
Q 1625 4250 1398 4047 
Q 1172 3844 1172 3481 
z
" transform="scale(0.015625)"/>
       </defs>
       <use xlink:href="#DejaVuSans-38"/>
      </g>
     </g>
    </g>
    <g id="ytick_6">
     <g id="line2d_23">
      <path d="M 36.528703 100.241107 
L 472.905033 100.241107 
" clip-path="url(#pd01cd8b93a)" style="fill: none; stroke: #000000; stroke-width: 0.8; stroke-linecap: square"/>
     </g>
     <g id="line2d_24">
      <g>
       <use xlink:href="#m87d8d52b3f" x="36.528703" y="100.241107" style="fill: #ffffff; stroke: #ffffff; stroke-width: 0.8"/>
      </g>
     </g>
     <g id="text_12">
      <!-- 10 -->
      <g style="fill: #ffffff" transform="translate(17.868786 103.722331) scale(0.09163 -0.09163)">
       <use xlink:href="#DejaVuSans-31"/>
       <use xlink:href="#DejaVuSans-30" x="63.623047"/>
      </g>
     </g>
    </g>
    <g id="ytick_7">
     <g id="line2d_25">
      <path d="M 36.528703 74.536698 
L 472.905033 74.536698 
" clip-path="url(#pd01cd8b93a)" style="fill: none; stroke: #000000; stroke-width: 0.8; stroke-linecap: square"/>
     </g>
     <g id="line2d_26">
      <g>
       <use xlink:href="#m87d8d52b3f" x="36.528703" y="74.536698" style="fill: #ffffff; stroke: #ffffff; stroke-width: 0.8"/>
      </g>
     </g>
     <g id="text_13">
      <!-- 12 -->
      <g style="fill: #ffffff" transform="translate(17.868786 78.017922) scale(0.09163 -0.09163)">
       <use xlink:href="#DejaVuSans-31"/>
       <use xlink:href="#DejaVuSans-32" x="63.623047"/>
      </g>
     </g>
    </g>
    <g id="ytick_8">
     <g id="line2d_27">
      <path d="M 36.528703 48.83229 
L 472.905033 48.83229 
" clip-path="url(#pd01cd8b93a)" style="fill: none; stroke: #000000; stroke-width: 0.8; stroke-linecap: square"/>
     </g>
     <g id="line2d_28">
      <g>
       <use xlink:href="#m87d8d52b3f" x="36.528703" y="48.83229" style="fill: #ffffff; stroke: #ffffff; stroke-width: 0.8"/>
      </g>
     </g>
     <g id="text_14">
      <!-- 14 -->
      <g style="fill: #ffffff" transform="translate(17.868786 52.313514) scale(0.09163 -0.09163)">
       <use xlink:href="#DejaVuSans-31"/>
       <use xlink:href="#DejaVuSans-34" x="63.623047"/>
      </g>
     </g>
    </g>
    <g id="ytick_9">
     <g id="line2d_29">
      <path d="M 36.528703 23.127882 
L 472.905033 23.127882 
" clip-path="url(#pd01cd8b93a)" style="fill: none; stroke: #000000; stroke-width: 0.8; stroke-linecap: square"/>
     </g>
     <g id="line2d_30">
      <g>
       <use xlink:href="#m87d8d52b3f" x="36.528703" y="23.127882" style="fill: #ffffff; stroke: #ffffff; stroke-width: 0.8"/>
      </g>
     </g>
     <g id="text_15">
      <!-- 16 -->
      <g style="fill: #ffffff" transform="translate(17.868786 26.609106) scale(0.09163 -0.09163)">
       <use xlink:href="#DejaVuSans-31"/>
       <use xlink:href="#DejaVuSans-36" x="63.623047"/>
      </g>
     </g>
    </g>
   </g>
   <g id="line2d_31">
    <path d="M 36.528703 203.05874 
L 57.06406 203.05874 
L 58.77534 215.910944 
L 104.979892 215.910944 
L 106.691172 228.763148 
L 472.905033 228.763148 
L 472.905033 228.763148 
" clip-path="url(#pd01cd8b93a)" style="fill: none; stroke: #a1c9f4; stroke-opacity: 0.74902; stroke-width: 1.5; stroke-linecap: square"/>
   </g>
   <g id="line2d_32">
    <path d="M 36.528703 177.354332 
L 39.951263 177.354332 
L 41.662543 190.206536 
L 67.331738 190.206536 
L 69.043018 203.05874 
L 111.825011 203.05874 
L 113.536291 215.910944 
L 214.501795 215.910944 
L 216.213074 228.763148 
L 472.905033 228.763148 
L 472.905033 228.763148 
" clip-path="url(#pd01cd8b93a)" style="fill: none; stroke: #ffb482; stroke-opacity: 0.74902; stroke-width: 1.5; stroke-linecap: square"/>
   </g>
   <g id="line2d_33">
    <path d="M 36.528703 151.649923 
L 38.239983 151.649923 
L 39.951263 164.502127 
L 60.48662 164.502127 
L 62.197899 177.354332 
L 89.578375 177.354332 
L 91.289655 190.206536 
L 139.205487 190.206536 
L 140.916767 203.05874 
L 219.635634 203.05874 
L 221.346913 215.910944 
L 431.834319 215.910944 
L 433.545599 228.763148 
L 472.905033 228.763148 
L 472.905033 228.763148 
" clip-path="url(#pd01cd8b93a)" style="fill: none; stroke: #8de5a1; stroke-opacity: 0.74902; stroke-width: 1.5; stroke-linecap: square"/>
   </g>
   <g id="line2d_34">
    <path d="M 36.528703 113.093311 
L 45.085102 113.093311 
L 46.796382 125.945515 
L 60.48662 125.945515 
L 62.197899 138.797719 
L 81.021976 138.797719 
L 82.733256 151.649923 
L 110.113732 151.649923 
L 111.825011 164.502127 
L 149.473165 164.502127 
L 151.184445 177.354332 
L 199.100277 177.354332 
L 200.811557 190.206536 
L 282.952984 190.206536 
L 284.664263 203.05874 
L 436.968159 203.05874 
L 438.679438 215.910944 
L 472.905033 215.910944 
L 472.905033 215.910944 
" clip-path="url(#pd01cd8b93a)" style="fill: none; stroke: #ff9f9b; stroke-opacity: 0.74902; stroke-width: 1.5; stroke-linecap: square"/>
   </g>
   <g id="line2d_35">
    <path d="M 36.528703 35.980086 
L 38.239983 35.980086 
L 39.951263 48.83229 
L 50.218941 48.83229 
L 51.930221 61.684494 
L 62.197899 61.684494 
L 63.909179 74.536698 
L 77.599417 74.536698 
L 79.310697 87.388902 
L 94.712214 87.388902 
L 96.423494 100.241107 
L 115.247571 100.241107 
L 116.95885 113.093311 
L 142.628046 113.093311 
L 144.339326 125.945515 
L 170.008522 125.945515 
L 171.719802 138.797719 
L 207.656676 138.797719 
L 209.367955 151.649923 
L 255.572508 151.649923 
L 257.283788 164.502127 
L 322.312417 164.502127 
L 324.023697 177.354332 
L 416.432802 177.354332 
L 418.144082 190.206536 
L 472.905033 190.206536 
L 472.905033 190.206536 
" clip-path="url(#pd01cd8b93a)" style="fill: none; stroke: #d0bbff; stroke-opacity: 0.74902; stroke-width: 1.5; stroke-linecap: square"/>
   </g>
   <g id="line2d_36">
    <path d="M 108.612367 -1 
L 110.113732 10.275677 
L 123.803969 10.275677 
L 125.515249 23.127882 
L 137.494207 23.127882 
L 139.205487 35.980086 
L 154.607004 35.980086 
L 156.318284 48.83229 
L 175.142361 48.83229 
L 176.853641 61.684494 
L 197.388997 61.684494 
L 199.100277 74.536698 
L 223.058193 74.536698 
L 224.769473 87.388902 
L 253.861228 87.388902 
L 255.572508 100.241107 
L 289.798102 100.241107 
L 291.509382 113.093311 
L 334.291375 113.093311 
L 336.002655 125.945515 
L 387.341047 125.945515 
L 389.052326 138.797719 
L 455.792235 138.797719 
L 457.503515 151.649923 
L 472.905033 151.649923 
L 472.905033 151.649923 
" clip-path="url(#pd01cd8b93a)" style="fill: none; stroke: #debb9b; stroke-opacity: 0.74902; stroke-width: 1.5; stroke-linecap: square"/>
   </g>
   <g id="line2d_37">
    <path d="M 301.986976 -1 
L 303.48834 10.275677 
L 327.446256 10.275677 
L 329.157536 23.127882 
L 354.826732 23.127882 
L 356.538012 35.980086 
L 387.341047 35.980086 
L 389.052326 48.83229 
L 423.277921 48.83229 
L 424.9892 61.684494 
L 464.348634 61.684494 
L 466.059914 74.536698 
L 472.905033 74.536698 
L 472.905033 74.536698 
" clip-path="url(#pd01cd8b93a)" style="fill: none; stroke: #fab0e4; stroke-opacity: 0.74902; stroke-width: 1.5; stroke-linecap: square"/>
   </g>
   <g id="line2d_38">
    <path d="M 0 0 
" clip-path="url(#pd01cd8b93a)" style="fill: none; stroke: #cfcfcf; stroke-opacity: 0.74902; stroke-width: 1.5; stroke-linecap: square"/>
   </g>
   <g id="patch_3">
    <path d="M 36.528703 228.763148 
L 36.528703 23.127882 
" style="fill: none; stroke: #000000; stroke-linejoin: miter; stroke-linecap: square"/>
   </g>
   <g id="patch_4">
    <path d="M 36.528703 228.763148 
L 472.905033 228.763148 
" style="fill: none; stroke: #000000; stroke-linejoin: miter; stroke-linecap: square"/>
   </g>
  </g>
  <g id="axes_2">
   <g id="legend_1">
    <g id="patch_5">
     <path d="M 479.094416 133.473309 
L 559.499741 133.473309 
L 559.499741 23.127882 
L 479.094416 23.127882 
z
" style="fill: #333333"/>
    </g>
    <g id="line2d_39">
     <path d="M 482.759616 30.54848 
L 491.922616 30.54848 
L 501.085616 30.54848 
" style="fill: none; stroke: #a1c9f4; stroke-opacity: 0.74902; stroke-width: 1.5; stroke-linecap: square"/>
    </g>
    <g id="text_16">
     <!-- bs=128 -->
     <g style="fill: #ffffff" transform="translate(508.416016 33.75553) scale(0.09163 -0.09163)">
      <defs>
       <path id="DejaVuSans-62" d="M 3116 1747 
Q 3116 2381 2855 2742 
Q 2594 3103 2138 3103 
Q 1681 3103 1420 2742 
Q 1159 2381 1159 1747 
Q 1159 1113 1420 752 
Q 1681 391 2138 391 
Q 2594 391 2855 752 
Q 3116 1113 3116 1747 
z
M 1159 2969 
Q 1341 3281 1617 3432 
Q 1894 3584 2278 3584 
Q 2916 3584 3314 3078 
Q 3713 2572 3713 1747 
Q 3713 922 3314 415 
Q 2916 -91 2278 -91 
Q 1894 -91 1617 61 
Q 1341 213 1159 525 
L 1159 0 
L 581 0 
L 581 4863 
L 1159 4863 
L 1159 2969 
z
" transform="scale(0.015625)"/>
       <path id="DejaVuSans-73" d="M 2834 3397 
L 2834 2853 
Q 2591 2978 2328 3040 
Q 2066 3103 1784 3103 
Q 1356 3103 1142 2972 
Q 928 2841 928 2578 
Q 928 2378 1081 2264 
Q 1234 2150 1697 2047 
L 1894 2003 
Q 2506 1872 2764 1633 
Q 3022 1394 3022 966 
Q 3022 478 2636 193 
Q 2250 -91 1575 -91 
Q 1294 -91 989 -36 
Q 684 19 347 128 
L 347 722 
Q 666 556 975 473 
Q 1284 391 1588 391 
Q 1994 391 2212 530 
Q 2431 669 2431 922 
Q 2431 1156 2273 1281 
Q 2116 1406 1581 1522 
L 1381 1569 
Q 847 1681 609 1914 
Q 372 2147 372 2553 
Q 372 3047 722 3315 
Q 1072 3584 1716 3584 
Q 2034 3584 2315 3537 
Q 2597 3491 2834 3397 
z
" transform="scale(0.015625)"/>
       <path id="DejaVuSans-3d" d="M 678 2906 
L 4684 2906 
L 4684 2381 
L 678 2381 
L 678 2906 
z
M 678 1631 
L 4684 1631 
L 4684 1100 
L 678 1100 
L 678 1631 
z
" transform="scale(0.015625)"/>
      </defs>
      <use xlink:href="#DejaVuSans-62"/>
      <use xlink:href="#DejaVuSans-73" x="63.476562"/>
      <use xlink:href="#DejaVuSans-3d" x="115.576172"/>
      <use xlink:href="#DejaVuSans-31" x="199.365234"/>
      <use xlink:href="#DejaVuSans-32" x="262.988281"/>
      <use xlink:href="#DejaVuSans-38" x="326.611328"/>
     </g>
    </g>
    <g id="line2d_40">
     <path d="M 482.759616 43.998046 
L 491.922616 43.998046 
L 501.085616 43.998046 
" style="fill: none; stroke: #ffb482; stroke-opacity: 0.74902; stroke-width: 1.5; stroke-linecap: square"/>
    </g>
    <g id="text_17">
     <!-- bs=256 -->
     <g style="fill: #ffffff" transform="translate(508.416016 47.205096) scale(0.09163 -0.09163)">
      <use xlink:href="#DejaVuSans-62"/>
      <use xlink:href="#DejaVuSans-73" x="63.476562"/>
      <use xlink:href="#DejaVuSans-3d" x="115.576172"/>
      <use xlink:href="#DejaVuSans-32" x="199.365234"/>
      <use xlink:href="#DejaVuSans-35" x="262.988281"/>
      <use xlink:href="#DejaVuSans-36" x="326.611328"/>
     </g>
    </g>
    <g id="line2d_41">
     <path d="M 482.759616 57.447612 
L 491.922616 57.447612 
L 501.085616 57.447612 
" style="fill: none; stroke: #8de5a1; stroke-opacity: 0.74902; stroke-width: 1.5; stroke-linecap: square"/>
    </g>
    <g id="text_18">
     <!-- bs=512 -->
     <g style="fill: #ffffff" transform="translate(508.416016 60.654662) scale(0.09163 -0.09163)">
      <use xlink:href="#DejaVuSans-62"/>
      <use xlink:href="#DejaVuSans-73" x="63.476562"/>
      <use xlink:href="#DejaVuSans-3d" x="115.576172"/>
      <use xlink:href="#DejaVuSans-35" x="199.365234"/>
      <use xlink:href="#DejaVuSans-31" x="262.988281"/>
      <use xlink:href="#DejaVuSans-32" x="326.611328"/>
     </g>
    </g>
    <g id="line2d_42">
     <path d="M 482.759616 70.897178 
L 491.922616 70.897178 
L 501.085616 70.897178 
" style="fill: none; stroke: #ff9f9b; stroke-opacity: 0.74902; stroke-width: 1.5; stroke-linecap: square"/>
    </g>
    <g id="text_19">
     <!-- bs=1024 -->
     <g style="fill: #ffffff" transform="translate(508.416016 74.104228) scale(0.09163 -0.09163)">
      <use xlink:href="#DejaVuSans-62"/>
      <use xlink:href="#DejaVuSans-73" x="63.476562"/>
      <use xlink:href="#DejaVuSans-3d" x="115.576172"/>
      <use xlink:href="#DejaVuSans-31" x="199.365234"/>
      <use xlink:href="#DejaVuSans-30" x="262.988281"/>
      <use xlink:href="#DejaVuSans-32" x="326.611328"/>
      <use xlink:href="#DejaVuSans-34" x="390.234375"/>
     </g>
    </g>
    <g id="line2d_43">
     <path d="M 482.759616 84.346744 
L 491.922616 84.346744 
L 501.085616 84.346744 
" style="fill: none; stroke: #d0bbff; stroke-opacity: 0.74902; stroke-width: 1.5; stroke-linecap: square"/>
    </g>
    <g id="text_20">
     <!-- bs=2048 -->
     <g style="fill: #ffffff" transform="translate(508.416016 87.553794) scale(0.09163 -0.09163)">
      <use xlink:href="#DejaVuSans-62"/>
      <use xlink:href="#DejaVuSans-73" x="63.476562"/>
      <use xlink:href="#DejaVuSans-3d" x="115.576172"/>
      <use xlink:href="#DejaVuSans-32" x="199.365234"/>
      <use xlink:href="#DejaVuSans-30" x="262.988281"/>
      <use xlink:href="#DejaVuSans-34" x="326.611328"/>
      <use xlink:href="#DejaVuSans-38" x="390.234375"/>
     </g>
    </g>
    <g id="line2d_44">
     <path d="M 482.759616 97.79631 
L 491.922616 97.79631 
L 501.085616 97.79631 
" style="fill: none; stroke: #debb9b; stroke-opacity: 0.74902; stroke-width: 1.5; stroke-linecap: square"/>
    </g>
    <g id="text_21">
     <!-- bs=4096 -->
     <g style="fill: #ffffff" transform="translate(508.416016 101.00336) scale(0.09163 -0.09163)">
      <defs>
       <path id="DejaVuSans-39" d="M 703 97 
L 703 672 
Q 941 559 1184 500 
Q 1428 441 1663 441 
Q 2288 441 2617 861 
Q 2947 1281 2994 2138 
Q 2813 1869 2534 1725 
Q 2256 1581 1919 1581 
Q 1219 1581 811 2004 
Q 403 2428 403 3163 
Q 403 3881 828 4315 
Q 1253 4750 1959 4750 
Q 2769 4750 3195 4129 
Q 3622 3509 3622 2328 
Q 3622 1225 3098 567 
Q 2575 -91 1691 -91 
Q 1453 -91 1209 -44 
Q 966 3 703 97 
z
M 1959 2075 
Q 2384 2075 2632 2365 
Q 2881 2656 2881 3163 
Q 2881 3666 2632 3958 
Q 2384 4250 1959 4250 
Q 1534 4250 1286 3958 
Q 1038 3666 1038 3163 
Q 1038 2656 1286 2365 
Q 1534 2075 1959 2075 
z
" transform="scale(0.015625)"/>
      </defs>
      <use xlink:href="#DejaVuSans-62"/>
      <use xlink:href="#DejaVuSans-73" x="63.476562"/>
      <use xlink:href="#DejaVuSans-3d" x="115.576172"/>
      <use xlink:href="#DejaVuSans-34" x="199.365234"/>
      <use xlink:href="#DejaVuSans-30" x="262.988281"/>
      <use xlink:href="#DejaVuSans-39" x="326.611328"/>
      <use xlink:href="#DejaVuSans-36" x="390.234375"/>
     </g>
    </g>
    <g id="line2d_45">
     <path d="M 482.759616 111.245876 
L 491.922616 111.245876 
L 501.085616 111.245876 
" style="fill: none; stroke: #fab0e4; stroke-opacity: 0.74902; stroke-width: 1.5; stroke-linecap: square"/>
    </g>
    <g id="text_22">
     <!-- bs=8192 -->
     <g style="fill: #ffffff" transform="translate(508.416016 114.452926) scale(0.09163 -0.09163)">
      <use xlink:href="#DejaVuSans-62"/>
      <use xlink:href="#DejaVuSans-73" x="63.476562"/>
      <use xlink:href="#DejaVuSans-3d" x="115.576172"/>
      <use xlink:href="#DejaVuSans-38" x="199.365234"/>
      <use xlink:href="#DejaVuSans-31" x="262.988281"/>
      <use xlink:href="#DejaVuSans-39" x="326.611328"/>
      <use xlink:href="#DejaVuSans-32" x="390.234375"/>
     </g>
    </g>
    <g id="line2d_46">
     <path d="M 482.759616 124.695441 
L 491.922616 124.695441 
L 501.085616 124.695441 
" style="fill: none; stroke: #cfcfcf; stroke-opacity: 0.74902; stroke-width: 1.5; stroke-linecap: square"/>
    </g>
    <g id="text_23">
     <!-- bs=16384 -->
     <g style="fill: #ffffff" transform="translate(508.416016 127.902491) scale(0.09163 -0.09163)">
      <defs>
       <path id="DejaVuSans-33" d="M 2597 2516 
Q 3050 2419 3304 2112 
Q 3559 1806 3559 1356 
Q 3559 666 3084 287 
Q 2609 -91 1734 -91 
Q 1441 -91 1130 -33 
Q 819 25 488 141 
L 488 750 
Q 750 597 1062 519 
Q 1375 441 1716 441 
Q 2309 441 2620 675 
Q 2931 909 2931 1356 
Q 2931 1769 2642 2001 
Q 2353 2234 1838 2234 
L 1294 2234 
L 1294 2753 
L 1863 2753 
Q 2328 2753 2575 2939 
Q 2822 3125 2822 3475 
Q 2822 3834 2567 4026 
Q 2313 4219 1838 4219 
Q 1578 4219 1281 4162 
Q 984 4106 628 3988 
L 628 4550 
Q 988 4650 1302 4700 
Q 1616 4750 1894 4750 
Q 2613 4750 3031 4423 
Q 3450 4097 3450 3541 
Q 3450 3153 3228 2886 
Q 3006 2619 2597 2516 
z
" transform="scale(0.015625)"/>
      </defs>
      <use xlink:href="#DejaVuSans-62"/>
      <use xlink:href="#DejaVuSans-73" x="63.476562"/>
      <use xlink:href="#DejaVuSans-3d" x="115.576172"/>
      <use xlink:href="#DejaVuSans-31" x="199.365234"/>
      <use xlink:href="#DejaVuSans-36" x="262.988281"/>
      <use xlink:href="#DejaVuSans-33" x="326.611328"/>
      <use xlink:href="#DejaVuSans-38" x="390.234375"/>
      <use xlink:href="#DejaVuSans-34" x="453.857422"/>
     </g>
    </g>
   </g>
  </g>
  <g id="text_24">
   <!-- size -->
   <g style="fill: #ffffff" transform="translate(246.220391 257.594142) scale(0.09163 -0.09163)">
    <defs>
     <path id="DejaVuSans-69" d="M 603 3500 
L 1178 3500 
L 1178 0 
L 603 0 
L 603 3500 
z
M 603 4863 
L 1178 4863 
L 1178 4134 
L 603 4134 
L 603 4863 
z
" transform="scale(0.015625)"/>
     <path id="DejaVuSans-7a" d="M 353 3500 
L 3084 3500 
L 3084 2975 
L 922 459 
L 3084 459 
L 3084 0 
L 275 0 
L 275 525 
L 2438 3041 
L 353 3041 
L 353 3500 
z
" transform="scale(0.015625)"/>
     <path id="DejaVuSans-65" d="M 3597 1894 
L 3597 1613 
L 953 1613 
Q 991 1019 1311 708 
Q 1631 397 2203 397 
Q 2534 397 2845 478 
Q 3156 559 3463 722 
L 3463 178 
Q 3153 47 2828 -22 
Q 2503 -91 2169 -91 
Q 1331 -91 842 396 
Q 353 884 353 1716 
Q 353 2575 817 3079 
Q 1281 3584 2069 3584 
Q 2775 3584 3186 3129 
Q 3597 2675 3597 1894 
z
M 3022 2063 
Q 3016 2534 2758 2815 
Q 2500 3097 2075 3097 
Q 1594 3097 1305 2825 
Q 1016 2553 972 2059 
L 3022 2063 
z
" transform="scale(0.015625)"/>
    </defs>
    <use xlink:href="#DejaVuSans-73"/>
    <use xlink:href="#DejaVuSans-69" x="52.099609"/>
    <use xlink:href="#DejaVuSans-7a" x="79.882812"/>
    <use xlink:href="#DejaVuSans-65" x="132.373047"/>
   </g>
  </g>
  <g id="text_25">
   <!-- count -->
   <g style="fill: #ffffff" transform="translate(9.962688 138.425557) rotate(-90) scale(0.09163 -0.09163)">
    <defs>
     <path id="DejaVuSans-63" d="M 3122 3366 
L 3122 2828 
Q 2878 2963 2633 3030 
Q 2388 3097 2138 3097 
Q 1578 3097 1268 2742 
Q 959 2388 959 1747 
Q 959 1106 1268 751 
Q 1578 397 2138 397 
Q 2388 397 2633 464 
Q 2878 531 3122 666 
L 3122 134 
Q 2881 22 2623 -34 
Q 2366 -91 2075 -91 
Q 1284 -91 818 406 
Q 353 903 353 1747 
Q 353 2603 823 3093 
Q 1294 3584 2113 3584 
Q 2378 3584 2631 3529 
Q 2884 3475 3122 3366 
z
" transform="scale(0.015625)"/>
     <path id="DejaVuSans-6f" d="M 1959 3097 
Q 1497 3097 1228 2736 
Q 959 2375 959 1747 
Q 959 1119 1226 758 
Q 1494 397 1959 397 
Q 2419 397 2687 759 
Q 2956 1122 2956 1747 
Q 2956 2369 2687 2733 
Q 2419 3097 1959 3097 
z
M 1959 3584 
Q 2709 3584 3137 3096 
Q 3566 2609 3566 1747 
Q 3566 888 3137 398 
Q 2709 -91 1959 -91 
Q 1206 -91 779 398 
Q 353 888 353 1747 
Q 353 2609 779 3096 
Q 1206 3584 1959 3584 
z
" transform="scale(0.015625)"/>
     <path id="DejaVuSans-75" d="M 544 1381 
L 544 3500 
L 1119 3500 
L 1119 1403 
Q 1119 906 1312 657 
Q 1506 409 1894 409 
Q 2359 409 2629 706 
Q 2900 1003 2900 1516 
L 2900 3500 
L 3475 3500 
L 3475 0 
L 2900 0 
L 2900 538 
Q 2691 219 2414 64 
Q 2138 -91 1772 -91 
Q 1169 -91 856 284 
Q 544 659 544 1381 
z
M 1991 3584 
L 1991 3584 
z
" transform="scale(0.015625)"/>
     <path id="DejaVuSans-6e" d="M 3513 2113 
L 3513 0 
L 2938 0 
L 2938 2094 
Q 2938 2591 2744 2837 
Q 2550 3084 2163 3084 
Q 1697 3084 1428 2787 
Q 1159 2491 1159 1978 
L 1159 0 
L 581 0 
L 581 3500 
L 1159 3500 
L 1159 2956 
Q 1366 3272 1645 3428 
Q 1925 3584 2291 3584 
Q 2894 3584 3203 3211 
Q 3513 2838 3513 2113 
z
" transform="scale(0.015625)"/>
     <path id="DejaVuSans-74" d="M 1172 4494 
L 1172 3500 
L 2356 3500 
L 2356 3053 
L 1172 3053 
L 1172 1153 
Q 1172 725 1289 603 
Q 1406 481 1766 481 
L 2356 481 
L 2356 0 
L 1766 0 
Q 1100 0 847 248 
Q 594 497 594 1153 
L 594 3053 
L 172 3053 
L 172 3500 
L 594 3500 
L 594 4494 
L 1172 4494 
z
" transform="scale(0.015625)"/>
    </defs>
    <use xlink:href="#DejaVuSans-63"/>
    <use xlink:href="#DejaVuSans-6f" x="54.980469"/>
    <use xlink:href="#DejaVuSans-75" x="116.162109"/>
    <use xlink:href="#DejaVuSans-6e" x="179.541016"/>
    <use xlink:href="#DejaVuSans-74" x="242.919922"/>
   </g>
  </g>
  <g id="text_26">
   <!-- rbyd tag bounds -->
   <g style="fill: #ffffff" transform="translate(209.904662 11.358521) scale(0.11 -0.11)">
    <defs>
     <path id="DejaVuSans-72" d="M 2631 2963 
Q 2534 3019 2420 3045 
Q 2306 3072 2169 3072 
Q 1681 3072 1420 2755 
Q 1159 2438 1159 1844 
L 1159 0 
L 581 0 
L 581 3500 
L 1159 3500 
L 1159 2956 
Q 1341 3275 1631 3429 
Q 1922 3584 2338 3584 
Q 2397 3584 2469 3576 
Q 2541 3569 2628 3553 
L 2631 2963 
z
" transform="scale(0.015625)"/>
     <path id="DejaVuSans-79" d="M 2059 -325 
Q 1816 -950 1584 -1140 
Q 1353 -1331 966 -1331 
L 506 -1331 
L 506 -850 
L 844 -850 
Q 1081 -850 1212 -737 
Q 1344 -625 1503 -206 
L 1606 56 
L 191 3500 
L 800 3500 
L 1894 763 
L 2988 3500 
L 3597 3500 
L 2059 -325 
z
" transform="scale(0.015625)"/>
     <path id="DejaVuSans-64" d="M 2906 2969 
L 2906 4863 
L 3481 4863 
L 3481 0 
L 2906 0 
L 2906 525 
Q 2725 213 2448 61 
Q 2172 -91 1784 -91 
Q 1150 -91 751 415 
Q 353 922 353 1747 
Q 353 2572 751 3078 
Q 1150 3584 1784 3584 
Q 2172 3584 2448 3432 
Q 2725 3281 2906 2969 
z
M 947 1747 
Q 947 1113 1208 752 
Q 1469 391 1925 391 
Q 2381 391 2643 752 
Q 2906 1113 2906 1747 
Q 2906 2381 2643 2742 
Q 2381 3103 1925 3103 
Q 1469 3103 1208 2742 
Q 947 2381 947 1747 
z
" transform="scale(0.015625)"/>
     <path id="DejaVuSans-20" transform="scale(0.015625)"/>
     <path id="DejaVuSans-61" d="M 2194 1759 
Q 1497 1759 1228 1600 
Q 959 1441 959 1056 
Q 959 750 1161 570 
Q 1363 391 1709 391 
Q 2188 391 2477 730 
Q 2766 1069 2766 1631 
L 2766 1759 
L 2194 1759 
z
M 3341 1997 
L 3341 0 
L 2766 0 
L 2766 531 
Q 2569 213 2275 61 
Q 1981 -91 1556 -91 
Q 1019 -91 701 211 
Q 384 513 384 1019 
Q 384 1609 779 1909 
Q 1175 2209 1959 2209 
L 2766 2209 
L 2766 2266 
Q 2766 2663 2505 2880 
Q 2244 3097 1772 3097 
Q 1472 3097 1187 3025 
Q 903 2953 641 2809 
L 641 3341 
Q 956 3463 1253 3523 
Q 1550 3584 1831 3584 
Q 2591 3584 2966 3190 
Q 3341 2797 3341 1997 
z
" transform="scale(0.015625)"/>
     <path id="DejaVuSans-67" d="M 2906 1791 
Q 2906 2416 2648 2759 
Q 2391 3103 1925 3103 
Q 1463 3103 1205 2759 
Q 947 2416 947 1791 
Q 947 1169 1205 825 
Q 1463 481 1925 481 
Q 2391 481 2648 825 
Q 2906 1169 2906 1791 
z
M 3481 434 
Q 3481 -459 3084 -895 
Q 2688 -1331 1869 -1331 
Q 1566 -1331 1297 -1286 
Q 1028 -1241 775 -1147 
L 775 -588 
Q 1028 -725 1275 -790 
Q 1522 -856 1778 -856 
Q 2344 -856 2625 -561 
Q 2906 -266 2906 331 
L 2906 616 
Q 2728 306 2450 153 
Q 2172 0 1784 0 
Q 1141 0 747 490 
Q 353 981 353 1791 
Q 353 2603 747 3093 
Q 1141 3584 1784 3584 
Q 2172 3584 2450 3431 
Q 2728 3278 2906 2969 
L 2906 3500 
L 3481 3500 
L 3481 434 
z
" transform="scale(0.015625)"/>
    </defs>
    <use xlink:href="#DejaVuSans-72"/>
    <use xlink:href="#DejaVuSans-62" x="41.113281"/>
    <use xlink:href="#DejaVuSans-79" x="104.589844"/>
    <use xlink:href="#DejaVuSans-64" x="163.769531"/>
    <use xlink:href="#DejaVuSans-20" x="227.246094"/>
    <use xlink:href="#DejaVuSans-74" x="259.033203"/>
    <use xlink:href="#DejaVuSans-61" x="298.242188"/>
    <use xlink:href="#DejaVuSans-67" x="359.521484"/>
    <use xlink:href="#DejaVuSans-20" x="422.998047"/>
    <use xlink:href="#DejaVuSans-62" x="454.785156"/>
    <use xlink:href="#DejaVuSans-6f" x="518.261719"/>
    <use xlink:href="#DejaVuSans-75" x="579.443359"/>
    <use xlink:href="#DejaVuSans-6e" x="642.822266"/>
    <use xlink:href="#DejaVuSans-64" x="706.201172"/>
    <use xlink:href="#DejaVuSans-73" x="769.677734"/>
   </g>
  </g>
 </g>
 <defs>
  <clipPath id="pd01cd8b93a">
   <rect x="36.528703" y="23.127882" width="436.376329" height="205.635266"/>
  </clipPath>
 </defs>
</svg>
